<?xml version="1.0" encoding="UTF-8"?>
<svg version="1.1" xmlns="http://www.w3.org/2000/svg" width="275" height="273">
<path d="M0 0 C90.75 0 181.5 0 275 0 C275 90.09 275 180.18 275 273 C184.25 273 93.5 273 0 273 C0 182.91 0 92.82 0 0 Z " fill="#F9F9F9" transform="translate(0,0)"/>
<path d="M0 0 C90.75 0 181.5 0 275 0 C275 90.09 275 180.18 275 273 C184.25 273 93.5 273 0 273 C0 182.91 0 92.82 0 0 Z M128.43115234 8.35766602 C127.517771 9.29630493 127.517771 9.29630493 126.5859375 10.25390625 C125.90660156 10.94419922 125.22726563 11.63449219 124.52734375 12.34570312 C123.81707031 13.07724609 123.10679688 13.80878906 122.375 14.5625 C114.52435102 22.61199281 114.52435102 22.61199281 110.4140625 26.08984375 C103.56446955 31.9788128 97.35044227 38.58503945 91 45 C75.68168796 60.47394076 75.68168796 60.47394076 69.59765625 65.625 C67.08854388 67.78443168 64.81274983 70.13152126 62.5 72.5 C57.21573717 77.91159447 51.8993231 83.21506924 45.47616577 87.27334595 C33.2197216 95.09244734 20.88412494 105.03242184 17.03891754 119.65474701 C15.06785559 129.88222454 14.97738708 140.36458889 14.97265625 150.74609375 C14.97154933 151.46658881 14.9704424 152.18708388 14.96930194 152.92941213 C14.98198287 165.44622259 15.57804671 177.92759677 16.0625 190.4375 C16.701875 213.723125 17.34125 237.00875 18 261 C92.25 261 166.5 261 243 261 C243.350625 236.91 243.70125 212.82 244.0625 188 C244.21726807 180.41902344 244.37203613 172.83804688 244.53149414 165.02734375 C244.58838097 158.17792176 244.58838097 158.17792176 244.62254333 151.32836914 C244.63826766 148.29688128 244.70143586 145.27055081 244.79478455 142.24047852 C245.98627848 123.9100131 245.98627848 123.9100131 239.34835815 107.59033203 C235.92897268 104.0743784 232.21317141 101.23263921 228.13650322 98.52351379 C224.69711572 96.07092948 221.90698059 93.04403562 219 90 C217.74550292 88.87730749 216.47817641 87.76840508 215.1875 86.6875 C209.27675164 81.58535113 203.89774718 75.94165244 198.421875 70.3828125 C194.02566798 65.94614959 189.57717997 61.67856345 184.8359375 57.61328125 C181.91599096 55.04745589 179.21520369 52.27891332 176.5 49.5 C172.47209569 45.4212704 168.39740225 41.51425254 164.0234375 37.8046875 C160.90284736 35.02145845 158.00122246 32.02166812 155.06591797 29.04638672 C151.87424624 25.82818222 148.57053939 22.83267761 145.1171875 19.90234375 C141.82021719 16.93993685 138.74618103 13.75378616 135.6796875 10.5546875 C134.48926994 9.33348328 133.24821768 8.16206124 132 7 C129.90626573 6.78187356 129.90626573 6.78187356 128.43115234 8.35766602 Z " fill="#F9F9F9" transform="translate(0,0)"/>
<path d="M0 0 C3.02977429 1.35231187 5.08472613 2.85480543 7.390625 5.23046875 C8.01356445 5.86500977 8.63650391 6.49955078 9.27832031 7.15332031 C9.92897461 7.82459961 10.57962891 8.49587891 11.25 9.1875 C15.7162643 13.73065838 20.17425358 18.15567476 25.046875 22.265625 C28.15014191 25.02132601 31.02554041 28.00552739 33.93896484 30.95849609 C36.50171983 33.5425114 39.09978177 36.02133391 41.875 38.375 C46.18629664 42.04758602 50.12637923 46.07068451 54.08154297 50.11865234 C56.88605503 52.96838445 59.74532755 55.67815986 62.78125 58.28125 C68.70059147 63.39624076 74.09175358 69.04768924 79.578125 74.6171875 C84.00457851 79.08437525 88.48361183 83.38692721 93.2578125 87.48046875 C96.45334056 90.26759972 99.35670957 93.33932334 102.3125 96.375 C104.75567643 98.93450952 104.75567643 98.93450952 106.98052216 100.28202915 C110.55921664 102.77328575 112.67863061 104.67469675 113.72743225 108.99987602 C113.98551281 112.80673005 113.99066052 116.57015521 113.90820312 120.38061523 C113.90575 121.86328749 113.90682456 123.34596908 113.91112518 124.82863712 C113.91292554 128.78629277 113.8666909 132.74199891 113.8102417 136.69919586 C113.76455329 140.41740303 113.76253027 144.13514508 113.75683594 147.8536377 C113.7149197 158.71518165 113.60322948 169.57636572 113.5 180.4375 C113.335 204.713125 113.17 228.98875 113 254 C38.75 254 -35.5 254 -112 254 C-112.763125 230.838125 -113.52625 207.67625 -114.3125 183.8125 C-114.64934814 176.57932861 -114.98619629 169.34615723 -115.33325195 161.89379883 C-115.4903549 156.03345748 -115.62318476 150.19193188 -115.61328125 144.33203125 C-115.61309565 143.57165062 -115.61291005 142.81126999 -115.61271882 142.02784753 C-115.52443235 121.70594512 -113.73271232 106.31566174 -98.98930359 91.00212097 C-92.17422834 84.50735962 -84.88329714 78.84581646 -77.12413597 73.53717613 C-71.43238709 69.41822111 -66.39804586 64.51607106 -61.5 59.5 C-58.620579 56.55119536 -55.73820777 53.7560123 -52.59375 51.09375 C-45.69880195 45.123337 -39.41238816 38.47753579 -33 32 C-17.65620274 16.5003151 -17.65620274 16.5003151 -11.6015625 11.37451172 C-9.10096986 9.22842383 -6.81382063 6.90845703 -4.5 4.5625 C-3.6440625 3.69753906 -2.788125 2.83257812 -1.90625 1.94140625 C-0.96265625 0.98041016 -0.96265625 0.98041016 0 0 Z M-0.5234375 31.4609375 C-1.75269203 32.73168585 -2.98185943 34.00251848 -4.2109375 35.2734375 C-6 37 -6 37 -9 39 C-9 39.66 -9 40.32 -9 41 C-9.58104492 41.25434814 -10.16208984 41.50869629 -10.76074219 41.77075195 C-13.24179642 43.13273495 -14.85518103 44.6431444 -16.828125 46.66796875 C-17.54613281 47.39693359 -18.26414062 48.12589844 -19.00390625 48.87695312 C-19.74511719 49.63943359 -20.48632812 50.40191406 -21.25 51.1875 C-26.08717791 56.14066707 -30.96092884 60.92629895 -36.21386719 65.4387207 C-38.5915222 67.51705638 -40.79760054 69.73807623 -43 72 C-45.80495362 74.88076318 -48.67133838 77.6028317 -51.7199707 80.2199707 C-55.70433621 83.694102 -59.4571078 87.34321921 -63.16796875 91.10546875 C-63.81067215 91.75195877 -64.45337555 92.39844879 -65.11555481 93.06452942 C-67.14202101 95.10307158 -69.16517132 97.1448537 -71.1875 99.1875 C-73.86555793 101.89225271 -76.54698328 104.59360204 -79.23046875 107.29296875 C-79.83577927 107.90657761 -80.44108978 108.52018646 -81.06474304 109.15238953 C-81.63916641 109.73011612 -82.21358978 110.30784271 -82.80541992 110.90307617 C-83.303134 111.40602707 -83.80084808 111.90897797 -84.31364441 112.4271698 C-86 114 -86 114 -88.66418457 115.50538635 C-92.40716292 119.50282757 -91.6569594 123.73254381 -91.56762695 129.01074219 C-91.56822963 130.15112568 -91.5688323 131.29150917 -91.56945324 132.46644974 C-91.56571913 136.16041972 -91.52763545 139.85313051 -91.48828125 143.546875 C-91.48093046 145.82632846 -91.47582918 148.10579032 -91.47302246 150.38525391 C-91.44680066 158.84029792 -91.37699457 167.29516131 -91.3125 175.75 C-91.209375 194.6425 -91.10625 213.535 -91 233 C-30.28 233 30.44 233 93 233 C93.28875 214.31375 93.5775 195.6275 93.875 176.375 C94.00245605 170.49864746 94.12991211 164.62229492 94.26123047 158.56787109 C94.3080838 153.24988924 94.3080838 153.24988924 94.33621216 147.93179321 C94.35755938 145.58286288 94.4064892 143.23407574 94.47805786 140.88613892 C95.30998667 124.92935039 95.30998667 124.92935039 88.09993172 111.37778664 C85.22238176 108.67769101 82.18837713 106.31634006 79 104 C77.59195549 102.78484073 76.19160341 101.56040832 74.8125 100.3125 C74.21050781 99.80332031 73.60851562 99.29414062 72.98828125 98.76953125 C69.88024871 96.00344336 66.99505245 93.01553613 64.07446289 90.05493164 C60.78586078 86.73885296 57.37803274 83.63978405 53.828125 80.609375 C51.39152505 78.46433402 49.14375307 76.15678952 46.87245178 73.8394928 C45.07581971 72.07448512 43.22238918 70.43617315 41.30639648 68.80249023 C36.87107133 64.94434967 32.72904229 60.83908221 28.59765625 56.66015625 C27.45290077 55.50972084 27.45290077 55.50972084 26.28501892 54.33604431 C23.87504822 51.91396374 21.46838174 49.48864179 19.0625 47.0625 C15.86871277 43.84222663 12.67169679 40.62520999 9.47265625 37.41015625 C8.7373317 36.66653336 8.00200714 35.92291046 7.24440002 35.15675354 C6.56957077 34.47862106 5.89474152 33.80048859 5.19946289 33.10180664 C4.30633141 32.20081993 4.30633141 32.20081993 3.39515686 31.28163147 C1.42422111 29.47107285 1.42921313 29.58839561 -0.5234375 31.4609375 Z " fill="#0C0D0D" transform="translate(130,7)"/>
<path d="M0 0 C16.27436954 11.42668499 27.54145232 26.94834449 31.53125 46.68359375 C33.95963965 63.86445052 29.99762396 78.35744123 20.234375 92.5703125 C18.56345091 94.7906846 16.82338201 96.90373089 15 99 C14.50371094 99.60199219 14.00742188 100.20398438 13.49609375 100.82421875 C5.9429828 109.24811443 -5.87504184 115.34749579 -17 117 C-19.44710492 117.06638917 -21.89585259 117.08548495 -24.34375 117.0625 C-25.59349609 117.05347656 -26.84324219 117.04445313 -28.13085938 117.03515625 C-29.07767578 117.02355469 -30.02449219 117.01195312 -31 117 C-31.25726888 108.18455013 -31.45150046 99.37043209 -31.56993389 90.55201912 C-31.62683991 86.45502323 -31.70372179 82.36063293 -31.82983398 78.26513672 C-32.85466052 44.08192304 -32.85466052 44.08192304 -21.48399353 30.79151917 C-19.30474854 28.16067268 -17.45639653 25.33083085 -15.56997681 22.48628235 C-13.44055332 19.28195613 -11.21415486 16.14605902 -9 13 C-8.28199219 11.97261719 -7.56398437 10.94523437 -6.82421875 9.88671875 C-5.66528574 8.22870072 -4.50429501 6.5721159 -3.33984375 4.91796875 C-2.20502039 3.293484 -1.09919898 1.64879846 0 0 Z " fill="#FEDD25" transform="translate(161,88)"/>
<path d="M0 0 C0.33 0 0.66 0 1 0 C1 4.62 1 9.24 1 14 C2.34835938 13.71125 3.69671875 13.4225 5.0859375 13.125 C6.84893578 12.74989398 8.61195785 12.37489977 10.375 12 C11.26445312 11.80921875 12.15390625 11.6184375 13.0703125 11.421875 C13.92109375 11.24140625 14.771875 11.0609375 15.6484375 10.875 C16.43395996 10.70742187 17.21948242 10.53984375 18.02880859 10.3671875 C20 10 20 10 22 10 C22 22.21 22 34.42 22 47 C6 46 6 46 1 45 C1 56.22 1 67.44 1 79 C3.97 79.66 6.94 80.32 10 81 C13.63 82.32 17.26 83.64 21 85 C21 97.87 21 110.74 21 124 C15 122 15 122 2 115 C1.67 125.56 1.34 136.12 1 147 C0.67 147 0.34 147 0 147 C0 98.49 0 49.98 0 0 Z " fill="#E7CC30" transform="translate(243,114)"/>
<path d="M0 0 C0.33 0 0.66 0 1 0 C1 37.95 1 75.9 1 115 C-59.72 115 -120.44 115 -183 115 C-183 114.67 -183 114.34 -183 114 C-122.61 114 -62.22 114 0 114 C0 106.41 0 98.82 0 91 C-2.97 90.01 -2.97 90.01 -6 89 C-7.40059428 88.31894658 -8.78213513 87.5966309 -10.13671875 86.828125 C-10.87422363 86.41353027 -11.61172852 85.99893555 -12.37158203 85.57177734 C-13.13583496 85.13559082 -13.90008789 84.6994043 -14.6875 84.25 C-16.28236981 83.35123898 -17.8774217 82.45280097 -19.47265625 81.5546875 C-20.24367676 81.11866211 -21.01469727 80.68263672 -21.80908203 80.23339844 C-26.17916938 77.77321554 -30.59077178 75.38914128 -35 73 C-33.36047417 68.3606824 -30.93128948 64.36144142 -28.375 60.1875 C-27.74464844 59.14819336 -27.74464844 59.14819336 -27.1015625 58.08789062 C-26.0710533 56.38989252 -25.03598319 54.69466386 -24 53 C-22.4153813 53.41175131 -20.83240298 53.8298139 -19.25 54.25 C-18.36828125 54.48203125 -17.4865625 54.7140625 -16.578125 54.953125 C-11.33932684 56.48587381 -6.17830982 58.27389673 -1 60 C-0.67 50.76 -0.34 41.52 0 32 C-4.84649196 32.03950724 -4.84649196 32.03950724 -9.69287109 32.09008789 C-14.77777778 32.11111111 -14.77777778 32.11111111 -17 31 C-17 24.07 -17 17.14 -17 10 C-4.8125 6.78571429 -4.8125 6.78571429 0 7 C0 4.69 0 2.38 0 0 Z " fill="#FEDE25" transform="translate(222,125)"/>
<path d="M0 0 C0 12.87 0 25.74 0 39 C-4.723125 40.794375 -9.44625 42.58875 -14.3125 44.4375 C-15.79919189 45.00267334 -17.28588379 45.56784668 -18.81762695 46.15014648 C-19.98769287 46.59430908 -21.15775879 47.03847168 -22.36328125 47.49609375 C-24.16212769 48.17949829 -24.16212769 48.17949829 -25.99731445 48.87670898 C-27.98515441 49.62035088 -29.98653039 50.32884346 -32 51 C-38.33333333 44.66666667 -44.66666667 38.33333333 -51 32 C-43.93985345 26.93652537 -36.70764757 22.24444873 -29.3125 17.6875 C-21.53419655 12.86998947 -13.81643056 7.99841013 -6.2902832 2.79370117 C-2.2053301 0 -2.2053301 0 0 0 Z " fill="#FEDE26" transform="translate(265,54)"/>
<path d="M0 0 C1.63984529 0.00031732 3.27971127 0.01165397 4.91943359 0.03173828 C6.21365738 0.03598312 6.21365738 0.03598312 7.5340271 0.04031372 C10.29544829 0.05152746 13.05654759 0.07663394 15.81787109 0.10205078 C17.68765808 0.11207905 19.55745015 0.12120517 21.42724609 0.12939453 C26.01591218 0.15147066 30.60433702 0.18600844 35.19287109 0.22705078 C34.00914917 1.40968506 34.00914917 1.40968506 32.80151367 2.61621094 C31.3469129 4.07203693 29.89516285 5.53078009 28.45458984 7.00048828 C24.93641897 10.57976882 21.29393897 13.93506217 17.49365234 17.21142578 C14.68513218 19.67186111 11.93856999 22.19713736 9.19287109 24.72705078 C2.21641747 31.13711005 2.21641747 31.13711005 -1.18212891 34.16455078 C-1.74673828 34.66857422 -2.31134766 35.17259766 -2.89306641 35.69189453 C-5.40435215 37.7060482 -8.12857677 39.44134936 -10.80712891 41.22705078 C-16.74712891 35.78205078 -16.74712891 35.78205078 -22.80712891 30.22705078 C-19.74280056 23.75120418 -16.11678781 17.83308362 -12.18212891 11.85205078 C-11.59689453 10.95099609 -11.01166016 10.04994141 -10.40869141 9.12158203 C-4.62651807 0.27591778 -4.62651807 0.27591778 0 0 Z " fill="#FEDE25" transform="translate(206.80712890625,27.77294921875)"/>
<path d="M0 0 C9 2 9 2 20 6 C20 18.87 20 31.74 20 45 C14 43 14 43 0 35 C0 23.45 0 11.9 0 0 Z " fill="#FEDE24" transform="translate(244,193)"/>
<path d="M0 0 C0.33 0 0.66 0 1 0 C1 37.95 1 75.9 1 115 C-59.72 115 -120.44 115 -183 115 C-183 114.67 -183 114.34 -183 114 C-122.61 114 -62.22 114 0 114 C0 86.94 0 59.88 0 32 C-4.95 32 -9.9 32 -15 32 C-15.66 31.67 -16.32 31.34 -17 31 C-17 24.07 -17 17.14 -17 10 C-4.8125 6.78571429 -4.8125 6.78571429 0 7 C0 4.69 0 2.38 0 0 Z " fill="#CAB848" transform="translate(222,125)"/>
<path d="M0 0 C0.66 0.33 1.32 0.66 2 1 C0.93854106 1.83461667 0.93854106 1.83461667 -0.1443615 2.68609428 C-5.36117584 7.23379588 -8.6170702 10.56496398 -9.24050903 17.63137817 C-9.28682006 20.17457013 -9.279042 22.71912486 -9.22705078 25.26220703 C-9.23410666 26.67255896 -9.24555826 28.08289463 -9.2610321 29.49317932 C-9.290435 33.29303874 -9.25893191 37.09016343 -9.21586847 40.88979959 C-9.18130872 44.87102434 -9.2036136 48.85193723 -9.21969604 52.83322144 C-9.24155476 60.3591957 -9.21282083 67.88407832 -9.165573 75.4099015 C-9.11423743 83.98319729 -9.11981315 92.55616695 -9.12999368 101.12957597 C-9.14965533 118.75345012 -9.09640028 136.37640459 -9 154 C-4.71 154 -0.42 154 4 154 C3.505 154.99 3.505 154.99 3 156 C-1.62 156 -6.24 156 -11 156 C-11.25508852 137.2846217 -11.45116624 118.56973739 -11.56993389 99.8529768 C-11.62655634 91.16155351 -11.70369088 82.47123287 -11.82983398 73.78051758 C-11.93978219 66.20192126 -12.01051171 58.6241237 -12.03497344 51.04475194 C-12.04926489 47.03430793 -12.08262563 43.02614806 -12.16303062 39.01643944 C-12.2382518 35.23424928 -12.2606233 31.45526097 -12.24418449 27.6723938 C-12.24860819 25.63801473 -12.30752706 23.60397717 -12.36862183 21.57051086 C-12.28751251 14.94515208 -11.52642882 10.88581473 -6.97748548 6.08203536 C-4.73614765 3.93225239 -2.42318029 1.94318125 0 0 Z " fill="#010202" transform="translate(29,105)"/>
<path d="M0 0 C12.87 0 25.74 0 39 0 C36.33333333 2.66666667 33.66666667 5.33333333 31 8 C30.34 7.67 29.68 7.34 29 7 C30.32 5.68 31.64 4.36 33 3 C21.78 2.67 10.56 2.34 -1 2 C-0.67 1.34 -0.34 0.68 0 0 Z " fill="#FED90E" transform="translate(203,28)"/>
<path d="M0 0 C2.99220268 1.36370299 5.29026529 2.94908083 7.75 5.125 C8.67039063 5.93324219 8.67039063 5.93324219 9.609375 6.7578125 C10.06828125 7.16773437 10.5271875 7.57765625 11 8 C10.67 8.99 10.34 9.98 10 11 C8.33035479 9.35718838 6.6643536 7.71067239 5 6.0625 C4.071875 5.14597656 3.14375 4.22945313 2.1875 3.28515625 C0 1 0 1 0 0 Z " fill="#1D1E1E" transform="translate(177,81)"/>
<path d="M0 0 C0.66 0 1.32 0 2 0 C2 0.66 2 1.32 2 2 C1.34 2 0.68 2 0 2 C-0.66 4.31 -1.32 6.62 -2 9 C-3.32 9.33 -4.64 9.66 -6 10 C-5.18957164 8.51969728 -4.37659652 7.04078858 -3.5625 5.5625 C-2.88380859 4.32693359 -2.88380859 4.32693359 -2.19140625 3.06640625 C-1 1 -1 1 0 0 Z " fill="#FED919" transform="translate(148,107)"/>
</svg>
